<svg width="20" height="20" viewBox="0 0 20 20" fill="none" xmlns="http://www.w3.org/2000/svg">
<g clip-path="url(#clip0_98_1544)">
<path fill-rule="evenodd" clip-rule="evenodd" d="M5.87517 12.5419C6.96913 11.4479 8.45286 10.8333 9.99996 10.8333C11.5471 10.8333 13.0308 11.4479 14.1248 12.5419C15.2187 13.6358 15.8333 15.1196 15.8333 16.6666C15.8333 17.1269 15.4602 17.5 15 17.5C14.5397 17.5 14.1666 17.1269 14.1666 16.6666C14.1666 15.5616 13.7276 14.5018 12.9462 13.7204C12.1648 12.939 11.105 12.5 9.99996 12.5C8.89489 12.5 7.83508 12.939 7.05368 13.7204C6.27228 14.5018 5.83329 15.5616 5.83329 16.6666C5.83329 17.1269 5.4602 17.5 4.99996 17.5C4.53972 17.5 4.16663 17.1269 4.16663 16.6666C4.16663 15.1196 4.78121 13.6358 5.87517 12.5419Z" fill="currentColor"/>
<path fill-rule="evenodd" clip-rule="evenodd" d="M10 5.83335C8.61933 5.83335 7.50004 6.95264 7.50004 8.33335C7.50004 9.71407 8.61933 10.8334 10 10.8334C11.3808 10.8334 12.5 9.71407 12.5 8.33335C12.5 6.95264 11.3808 5.83335 10 5.83335ZM5.83337 8.33335C5.83337 6.03217 7.69885 4.16669 10 4.16669C12.3012 4.16669 14.1667 6.03217 14.1667 8.33335C14.1667 10.6345 12.3012 12.5 10 12.5C7.69885 12.5 5.83337 10.6345 5.83337 8.33335Z" fill="currentColor"/>
<path fill-rule="evenodd" clip-rule="evenodd" d="M10 2.49998C5.85791 2.49998 2.50004 5.85784 2.50004 9.99998C2.50004 14.1421 5.85791 17.5 10 17.5C14.1422 17.5 17.5 14.1421 17.5 9.99998C17.5 5.85784 14.1422 2.49998 10 2.49998ZM0.833374 9.99998C0.833374 4.93737 4.93743 0.833313 10 0.833313C15.0627 0.833313 19.1667 4.93737 19.1667 9.99998C19.1667 15.0626 15.0627 19.1666 10 19.1666C4.93743 19.1666 0.833374 15.0626 0.833374 9.99998Z" fill="currentColor"/>
</g>
<defs>
<clipPath id="clip0_98_1544">
<rect width="20" height="20" fill="white"/>
</clipPath>
</defs>
</svg>
